<svg xmlns="http://www.w3.org/2000/svg" width="24" height="23" viewBox="0 0 24 23" fill="none">
    <g clip-path="url(#clip0_266_226)">
      <path d="M4.83516 2.26096C4.83857 2.32101 4.86077 2.37847 4.89863 2.4252C4.93649 2.47194 4.9881 2.50558 5.04613 2.52137C5.10417 2.53717 5.1657 2.53431 5.22203 2.5132C5.27835 2.49209 5.32661 2.45381 5.35997 2.40376C5.39334 2.35371 5.41011 2.29444 5.40794 2.23433C5.40576 2.17423 5.38473 2.11633 5.34783 2.06883C5.31093 2.02133 5.26003 1.98664 5.20233 1.96966C5.14462 1.95269 5.08304 1.95429 5.0263 1.97424H4.07059C3.56366 1.97424 3.07748 2.17562 2.71902 2.53408C2.36056 2.89254 2.15918 3.37872 2.15918 3.88566V8.66419C2.15918 10.185 2.76332 11.6435 3.8387 12.7189C4.91408 13.7943 6.37261 14.3984 7.89342 14.3984C9.41424 14.3984 10.8728 13.7943 11.9481 12.7189C13.0235 11.6435 13.6277 10.185 13.6277 8.66419V3.88566C13.6277 3.37872 13.4263 2.89254 13.0678 2.53408C12.7094 2.17562 12.2232 1.97424 11.7163 1.97424H10.7605C10.7417 1.99307 10.7268 2.01542 10.7166 2.04002C10.7064 2.06461 10.7012 2.09098 10.7012 2.1176C10.7012 2.14422 10.7064 2.17059 10.7166 2.19518C10.7268 2.21978 10.7417 2.24213 10.7605 2.26096C10.7794 2.27978 10.8017 2.29471 10.8263 2.3049C10.8509 2.31509 10.8773 2.32034 10.9039 2.32034C10.9305 2.32034 10.9569 2.31509 10.9815 2.3049C11.0061 2.29471 11.0284 2.27978 11.0473 2.26096" stroke="white" stroke-width="1.91141" stroke-linecap="round" stroke-linejoin="round"/>
      <path d="M7.89355 14.3989V15.3546C7.89355 16.8754 8.4977 18.3339 9.57308 19.4093C10.6485 20.4847 12.107 21.0888 13.6278 21.0888C15.1486 21.0888 16.6071 20.4847 17.6825 19.4093C18.7579 18.3339 19.362 16.8754 19.362 15.3546V11.5317" stroke="white" stroke-width="1.91141" stroke-linecap="round" stroke-linejoin="round"/>
      <path d="M19.3621 11.5313C20.4177 11.5313 21.2735 10.6756 21.2735 9.61991C21.2735 8.56427 20.4177 7.7085 19.3621 7.7085C18.3065 7.7085 17.4507 8.56427 17.4507 9.61991C17.4507 10.6756 18.3065 11.5313 19.3621 11.5313Z" stroke="white" stroke-width="1.91141" stroke-linecap="round" stroke-linejoin="round"/>
    </g>
    <defs>
      <clipPath id="clip0_266_226">
        <rect width="22.937" height="22.937" fill="white" transform="translate(0.248047 0.0629883)"/>
      </clipPath>
    </defs>
  </svg>