<svg xmlns="http://www.w3.org/2000/svg" width="26" height="26" viewBox="0 0 26 26" fill="none">
    <path d="M19.0345 8.89223C19.0345 7.22371 18.3717 5.62353 17.1919 4.44371C16.0121 3.26389 14.4119 2.60107 12.7434 2.60107C11.0749 2.60107 9.47467 3.26389 8.29485 4.44371C7.11503 5.62353 6.45222 7.22371 6.45222 8.89223C6.45222 16.2319 3.30664 18.329 3.30664 18.329H22.1801C22.1801 18.329 19.0345 16.2319 19.0345 8.89223Z" stroke="black" stroke-width="2.09705" stroke-linecap="round" stroke-linejoin="round"/>
    <path d="M14.5576 22.5229C14.3732 22.8407 14.1087 23.1045 13.7903 23.2879C13.472 23.4712 13.111 23.5678 12.7436 23.5678C12.3763 23.5678 12.0153 23.4712 11.697 23.2879C11.3786 23.1045 11.114 22.8407 10.9297 22.5229" stroke="black" stroke-width="2.09705" stroke-linecap="round" stroke-linejoin="round"/>
    <path d="M2.2583 8.89223C2.2583 6.58547 2.99227 4.38357 4.35535 2.60107" stroke="black" stroke-width="2.09705" stroke-linecap="round" stroke-linejoin="round"/>
    <path d="M23.2289 8.89223C23.2289 6.62353 22.4931 4.41603 21.1318 2.60107" stroke="black" stroke-width="2.09705" stroke-linecap="round" stroke-linejoin="round"/>
  </svg>