<svg width="26" height="26" viewBox="0 0 26 26" fill="none" xmlns="http://www.w3.org/2000/svg">
<g id="icon/bell-ring">
<path id="Vector" d="M19.0345 8.89272C19.0345 7.2242 18.3717 5.62402 17.1919 4.4442C16.0121 3.26438 14.4119 2.60156 12.7434 2.60156C11.0749 2.60156 9.47467 3.26438 8.29485 4.4442C7.11503 5.62402 6.45222 7.2242 6.45222 8.89272C6.45222 16.2324 3.30664 18.3294 3.30664 18.3294H22.1801C22.1801 18.3294 19.0345 16.2324 19.0345 8.89272Z" stroke="black" stroke-width="2.09705" stroke-linecap="round" stroke-linejoin="round"/>
<path id="Vector_2" d="M14.5556 22.5234C14.3713 22.8412 14.1067 23.105 13.7883 23.2884C13.47 23.4717 13.1091 23.5682 12.7417 23.5682C12.3743 23.5682 12.0134 23.4717 11.695 23.2884C11.3767 23.105 11.1121 22.8412 10.9277 22.5234" stroke="black" stroke-width="2.09705" stroke-linecap="round" stroke-linejoin="round"/>
<path id="Vector_3" d="M2.25781 8.89272C2.25781 6.58596 2.99178 4.38406 4.35486 2.60156" stroke="black" stroke-width="2.09705" stroke-linecap="round" stroke-linejoin="round"/>
<path id="Vector_4" d="M23.2279 8.89272C23.2279 6.62402 22.4921 4.41652 21.1309 2.60156" stroke="black" stroke-width="2.09705" stroke-linecap="round" stroke-linejoin="round"/>
</g>
</svg>
