<svg width="22" height="21" viewBox="0 0 22 21" fill="none" xmlns="http://www.w3.org/2000/svg">
<g id="icon/newspaper">
<path id="Vector" d="M3.99951 19.2495H17.9995C18.4636 19.2495 18.9088 19.0651 19.2369 18.7369C19.5651 18.4088 19.7495 17.9636 19.7495 17.4995V3.49951C19.7495 3.03538 19.5651 2.59026 19.2369 2.26207C18.9088 1.93389 18.4636 1.74951 17.9995 1.74951H7.49951C7.03538 1.74951 6.59026 1.93389 6.26207 2.26207C5.93389 2.59026 5.74951 3.03538 5.74951 3.49951V17.4995C5.74951 17.9636 5.56514 18.4088 5.23695 18.7369C4.90876 19.0651 4.46364 19.2495 3.99951 19.2495ZM3.99951 19.2495C3.53538 19.2495 3.09026 19.0651 2.76207 18.7369C2.43389 18.4088 2.24951 17.9636 2.24951 17.4995V9.62451C2.24951 8.66201 3.03701 7.87451 3.99951 7.87451H5.74951" stroke="white" stroke-width="1.75" stroke-linecap="round" stroke-linejoin="round"/>
<path id="Vector_2" d="M16.2505 12.2495H9.25049" stroke="white" stroke-width="1.75" stroke-linecap="round" stroke-linejoin="round"/>
<path id="Vector_3" d="M13.6255 15.75H9.25049" stroke="white" stroke-width="1.75" stroke-linecap="round" stroke-linejoin="round"/>
<path id="Vector_4" d="M9.25049 5.25H16.2505V8.75H9.25049V5.25Z" stroke="white" stroke-width="1.75" stroke-linecap="round" stroke-linejoin="round"/>
</g>
</svg>
