<svg width="605" height="583" viewBox="0 0 605 583" fill="none" xmlns="http://www.w3.org/2000/svg">
<path d="M381.844 170.379L407.263 123.03C407.862 120.796 410.269 118.074 412.469 117.712C413.57 117.517 414.704 117.707 415.682 118.249L442.051 133.034C442.865 133.466 443.533 134.129 443.973 134.939C444.412 135.749 444.603 136.671 444.522 137.589L444.009 145.641L478.507 164.954C483.314 167.137 484.154 172.352 481.947 175.497L459.24 215.104C456.127 219.54 450.022 220.779 446.015 218.531L385.045 184.361C380.869 182.033 379.392 176.357 381.844 170.379Z" fill="#E0E0E0"/>
<path d="M381.341 169.125L403.107 129.647C405.206 126.741 408.546 125.589 410.967 126.953L480.061 165.706C482.978 167.349 483.393 171.935 480.934 175.517L461.046 212.164C455.962 221.241 449.66 221.252 445.484 218.925L384.917 184.964C378.693 181.472 376.629 176.813 381.341 169.125Z" fill="#EBEBEB"/>
<path d="M429.503 186.751C428.3 186.428 427.152 185.924 426.099 185.258C423.997 183.94 422.332 182.029 421.316 179.766C420.3 177.503 419.977 174.989 420.389 172.542C420.801 170.096 421.929 167.826 423.631 166.021C425.332 164.215 427.531 162.955 429.949 162.399C432.367 161.843 434.895 162.016 437.215 162.896C439.534 163.777 441.54 165.326 442.98 167.346C444.42 169.367 445.228 171.769 445.302 174.249C445.377 176.729 444.715 179.175 443.399 181.279C441.971 183.556 439.852 185.316 437.351 186.301C434.85 187.285 432.1 187.443 429.503 186.751ZM435.723 163.536C433.671 162.986 431.506 163.015 429.47 163.622C427.433 164.23 425.605 165.39 424.189 166.975C422.774 168.56 421.826 170.506 421.451 172.598C421.077 174.69 421.29 176.845 422.068 178.822C422.846 180.8 424.158 182.522 425.857 183.798C427.557 185.074 429.577 185.853 431.693 186.049C433.809 186.244 435.938 185.848 437.842 184.905C439.746 183.962 441.351 182.509 442.478 180.707C443.425 179.187 444.003 177.466 444.166 175.683C444.328 173.899 444.071 172.103 443.415 170.436C442.76 168.77 441.723 167.28 440.388 166.086C439.053 164.892 437.457 164.027 435.728 163.56L435.723 163.536Z" fill="#E0E0E0"/>
<path d="M430.255 173.047L433.127 168.469L435.662 173.243L438.195 178.028L432.788 177.832L427.381 177.636L430.255 173.047Z" fill="#E0E0E0"/>
<path d="M137.647 387.619L73.7628 402.823C71.644 403.328 69.4113 402.971 67.5561 401.83C65.7008 400.688 64.3749 398.857 63.8699 396.738L42.8138 308.306C42.3089 306.185 42.6665 303.951 43.8081 302.094C44.9498 300.237 46.7819 298.909 48.902 298.402L89.4409 288.78L128.495 313.632L143.767 377.724C144.015 378.776 144.054 379.866 143.88 380.933C143.707 381.999 143.326 383.021 142.757 383.94C142.189 384.859 141.445 385.657 140.568 386.288C139.692 386.919 138.699 387.372 137.647 387.619Z" fill="#EBEBEB"/>
<path d="M111.473 348.934C111.473 348.934 112.005 348.786 112.928 348.351C114.266 347.669 115.38 346.615 116.135 345.317C116.984 343.855 117.315 342.15 117.073 340.478C116.971 339.857 116.799 339.207 116.634 338.525L114.369 329.359L113.072 324.011L112.391 321.166C112.201 320.195 111.904 319.248 111.503 318.343C110.591 316.471 109.012 315.006 107.077 314.237C106.065 313.819 104.98 313.609 103.886 313.617C102.767 313.661 101.658 313.845 100.585 314.165L71.2877 321.206C70.0849 321.619 68.9969 322.311 68.1124 323.225C67.2278 324.139 66.5717 325.249 66.1976 326.465C65.8146 327.652 65.7258 328.915 65.9392 330.144C66.1709 331.325 66.5084 332.612 66.784 333.838L70.2128 348.015C70.4878 349.118 70.7168 350.309 71.0407 351.313C71.4095 352.314 71.9793 353.228 72.7152 353.999C73.4292 354.738 74.2845 355.326 75.2302 355.727C76.1759 356.128 77.1927 356.335 78.2201 356.336C79.2105 356.289 80.1922 356.128 81.1457 355.856L83.9512 355.198L89.3121 353.938L105.494 350.207L109.924 349.246L111.105 349.015C111.234 348.983 111.366 348.965 111.499 348.964C111.378 349.018 111.25 349.059 111.12 349.086L109.985 349.397C108.932 349.652 107.465 350.031 105.615 350.464L89.4876 354.41L84.0939 355.751L81.246 356.442C80.2505 356.732 79.2243 356.904 78.1887 356.954C76.4914 356.962 74.8333 356.444 73.4431 355.47C72.0528 354.497 70.9989 353.116 70.4265 351.518C70.0499 350.376 69.9001 349.307 69.5708 348.156L66.1364 334C65.842 332.803 65.5163 331.597 65.2714 330.256C65.0414 328.924 65.1354 327.556 65.5456 326.268C65.952 324.948 66.6641 323.743 67.6242 322.75C68.5842 321.757 69.765 321.005 71.0706 320.555C81.5287 317.975 91.3919 315.696 100.448 313.546C101.587 313.216 102.764 313.035 103.949 313.008C105.105 313.006 106.249 313.233 107.317 313.675C109.383 314.509 111.064 316.084 112.029 318.093C112.447 319.039 112.756 320.03 112.949 321.047C113.171 322.013 113.399 322.957 113.62 323.889C114.046 325.749 114.463 327.535 114.869 329.247C115.666 332.661 116.382 335.75 117.008 338.469C117.172 339.15 117.323 339.795 117.435 340.463C117.514 341.095 117.515 341.734 117.44 342.366C117.288 343.682 116.799 344.936 116.02 346.007C115.241 347.078 114.198 347.93 112.994 348.48C112.51 348.7 111.998 348.853 111.473 348.934Z" fill="#FAFAFA"/>
<path d="M117.652 343.037C117.44 342.944 117.243 342.82 117.068 342.668L115.499 341.509C114.084 340.403 112.153 338.923 109.816 337.123L105.925 334.066L103.752 332.365L102.613 331.478C102.26 331.217 101.838 331.065 101.399 331.041C100.948 331.018 100.5 331.127 100.11 331.354C99.7191 331.581 99.4029 331.917 99.1992 332.32C98.7665 333.267 98.3282 334.235 97.8738 335.22C96.9595 337.213 96.0452 339.206 95.107 341.371C94.6743 342.318 94.2472 343.244 93.8445 344.12L93.6839 344.469L93.357 344.269L87.9679 341.125L86.6963 340.359C86.3308 340.096 85.9185 339.906 85.4816 339.799C85.0736 339.71 84.6497 339.726 84.2497 339.846C83.8496 339.965 83.4866 340.185 83.1947 340.484C82.9113 340.805 82.6693 341.162 82.4744 341.544L81.8027 342.673C81.3576 343.415 80.9315 344.128 80.5109 344.821C79.6906 346.213 78.9115 347.492 78.2021 348.678L74.843 354.2C74.474 354.783 74.1644 355.271 73.9008 355.67C73.8047 355.851 73.6846 356.018 73.5438 356.167C73.5993 355.97 73.6837 355.781 73.7943 355.608C74.019 355.187 74.2897 354.678 74.6225 354.062C75.4247 352.655 76.492 350.759 77.8077 348.438C78.4857 347.243 79.2363 345.945 80.0329 344.559C80.4468 343.849 80.8654 343.123 81.2886 342.378C81.5097 342.012 81.7259 341.623 81.9498 341.246C82.1624 340.818 82.4309 340.42 82.7483 340.062C83.1113 339.685 83.5633 339.406 84.0626 339.251C84.5618 339.095 85.0923 339.068 85.6049 339.171C86.1136 339.292 86.5948 339.508 87.0228 339.809L88.3076 340.567L93.6702 343.727L93.1723 343.873C93.575 342.996 94.0021 342.07 94.4349 341.124L97.1989 334.984C97.6595 333.988 98.1111 333.013 98.5535 332.057C98.8166 331.54 99.2257 331.112 99.7301 330.825C100.235 330.539 100.812 330.407 101.391 330.446C101.947 330.483 102.481 330.681 102.928 331.014L104.061 331.922L106.224 333.62L110.153 336.743L115.647 341.292L117.133 342.551C117.321 342.696 117.494 342.859 117.652 343.037Z" fill="#FAFAFA"/>
<path d="M88.6189 331.723C88.6328 331.671 88.9755 331.561 89.5446 331.233C90.3369 330.758 90.9562 330.041 91.3117 329.189C91.5662 328.574 91.6645 327.906 91.5979 327.244C91.5313 326.582 91.3018 325.946 90.9299 325.394C90.4729 324.743 89.8304 324.243 89.0859 323.962C88.3415 323.68 87.5294 323.629 86.7555 323.815C85.9815 324.001 85.2815 324.416 84.7463 325.005C84.2112 325.594 83.8658 326.331 83.755 327.119C83.6733 327.782 83.7567 328.455 83.9978 329.078C84.2388 329.7 84.6301 330.254 85.1367 330.689C85.8361 331.287 86.708 331.646 87.6255 331.714C87.9742 331.703 88.3232 331.71 88.671 331.737C88.3487 331.909 87.9865 331.994 87.621 331.981C86.6086 332.022 85.6156 331.696 84.8237 331.064C84.2234 330.594 83.7525 329.979 83.4553 329.277C83.158 328.575 83.0442 327.809 83.1244 327.051C83.232 326.118 83.6238 325.24 84.2467 324.537C84.8696 323.834 85.6936 323.339 86.607 323.12C87.5204 322.901 88.4791 322.968 89.3532 323.312C90.2274 323.655 90.9748 324.259 91.4942 325.042C91.9087 325.683 92.1536 326.419 92.2059 327.181C92.2582 327.942 92.1162 328.704 91.7932 329.396C91.3577 330.333 90.6011 331.083 89.6605 331.51C89.3365 331.666 88.9784 331.74 88.6189 331.723Z" fill="#FAFAFA"/>
<path d="M58.2154 373.052L138.113 354.032L144.062 379.021C144.484 380.795 144.185 382.663 143.229 384.215C142.274 385.768 140.741 386.877 138.967 387.299L72.4419 403.135C70.6686 403.558 68.8002 403.258 67.2478 402.303C65.6954 401.347 64.5861 399.814 64.164 398.041L58.2154 373.052Z" fill="#E0E0E0"/>
<path d="M89.4409 288.78L95.3713 313.662C95.6022 314.639 96.0235 315.561 96.6112 316.374C97.1988 317.188 97.9412 317.878 98.7958 318.404C99.6505 318.93 100.601 319.283 101.592 319.441C102.583 319.6 103.595 319.561 104.571 319.327L128.475 313.627L89.4409 288.78Z" fill="#EBEBEB"/>
<path d="M96.1957 315.763C96.1957 315.763 97.3196 321.882 104.656 322.225C104.934 322.233 105.215 322.229 105.487 322.213C108.746 322.035 130.181 320.786 130.071 320.32L128.506 313.635L104.6 319.346C104.6 319.346 98.5269 320.549 96.1957 315.763Z" fill="#E0E0E0"/>
<path d="M94.5158 379.946L97.1451 379.319L98.3447 384.362C97.1239 385.749 95.4985 386.718 93.6976 387.133C89.7892 388.066 86.2734 386.072 85.3875 382.322C84.5017 378.571 86.7312 375.219 90.687 374.277C91.6469 374.001 92.6557 373.938 93.6422 374.095C94.6288 374.251 95.5691 374.621 96.3968 375.18L94.961 377.324C94.4507 376.969 93.87 376.729 93.2584 376.619C92.6469 376.509 92.0188 376.533 91.4171 376.688C90.8946 376.809 90.4011 377.032 89.9648 377.345C89.5285 377.657 89.158 378.052 88.8745 378.507C88.5909 378.963 88.3998 379.47 88.3121 379.999C88.2244 380.528 88.2418 381.069 88.3633 381.592C88.4848 382.114 88.708 382.608 89.0202 383.044C89.3325 383.48 89.7276 383.851 90.183 384.135C90.6384 384.418 91.1452 384.609 91.6744 384.697C92.2037 384.785 92.7451 384.767 93.2676 384.646C94.0491 384.479 94.7731 384.11 95.367 383.575L94.5158 379.946Z" fill="#FAFAFA"/>
<path d="M98.3657 372.675L101.235 371.99L104.195 384.407L101.326 385.093L98.3657 372.675Z" fill="#FAFAFA"/>
<path d="M107.599 372.912L108.388 376.189L114.136 374.82L114.64 377.115L108.89 378.494L109.92 382.999L107.041 383.682L104.08 371.264L113.474 369.027L113.978 371.321L107.599 372.912Z" fill="#FAFAFA"/>
<path d="M391.405 513.78L357.065 484.15C355.93 483.167 355.23 481.775 355.12 480.277C355.009 478.779 355.497 477.299 356.476 476.161L397.466 428.654C398.449 427.518 399.841 426.819 401.339 426.708C402.837 426.598 404.317 427.085 405.455 428.065L427.272 446.855L429.139 478.759L399.407 513.184C398.921 513.748 398.328 514.212 397.663 514.547C396.998 514.883 396.273 515.084 395.53 515.14C394.786 515.195 394.04 515.104 393.332 514.87C392.624 514.637 391.969 514.267 391.405 513.78Z" fill="#EBEBEB"/>
<path d="M402.486 483.487C402.486 483.487 402.781 483.723 403.394 484.066C404.31 484.541 405.342 484.744 406.37 484.651C407.106 484.576 407.817 484.343 408.455 483.968C408.818 483.758 409.155 483.507 409.461 483.219C409.768 482.91 410.065 482.553 410.378 482.178C411.621 480.71 413.052 479.046 414.616 477.217C415.397 476.307 416.239 475.336 417.082 474.32L418.397 472.793C418.869 472.292 419.28 471.737 419.623 471.141C420.296 469.876 420.479 468.407 420.135 467.015C419.973 466.299 419.671 465.622 419.249 465.021C418.77 464.413 418.217 463.867 417.604 463.395L401.784 449.825C401.064 449.321 400.236 448.992 399.366 448.866C398.497 448.74 397.61 448.82 396.776 449.099C395.959 449.368 395.218 449.83 394.614 450.444C394.035 451.06 393.468 451.759 392.891 452.41C390.608 455.042 388.415 457.587 386.325 460.003C385.814 460.616 385.243 461.201 384.795 461.831C384.384 462.439 384.101 463.125 383.964 463.846C383.839 464.545 383.857 465.262 384.015 465.954C384.174 466.646 384.47 467.3 384.887 467.875C385.31 468.412 385.796 468.895 386.336 469.315L387.86 470.64L390.728 473.132L399.356 480.68L401.689 482.748L402.29 483.301L402.484 483.498C402.4 483.458 402.323 483.403 402.258 483.337L401.625 482.82L399.239 480.827L390.504 473.385L387.617 470.922L386.079 469.604C385.517 469.161 385.011 468.65 384.574 468.082C384.119 467.467 383.795 466.765 383.621 466.02C383.448 465.275 383.428 464.503 383.564 463.75C383.699 462.957 384.004 462.203 384.459 461.54C384.939 460.874 385.475 460.335 385.989 459.712C388.072 457.283 390.264 454.738 392.505 452.094C393.085 451.432 393.621 450.77 394.248 450.099C394.903 449.43 395.709 448.929 396.598 448.637C397.494 448.337 398.447 448.25 399.383 448.385C400.318 448.519 401.209 448.869 401.985 449.409C407.652 454.228 412.886 458.83 417.78 463.028C418.415 463.526 418.986 464.1 419.482 464.737C420.171 465.681 420.581 466.8 420.664 467.966C420.748 469.132 420.501 470.297 419.953 471.33C419.59 471.944 419.159 472.515 418.668 473.033L417.342 474.557C416.482 475.557 415.645 476.508 414.851 477.425L410.568 482.386C410.248 482.748 409.951 483.104 409.617 483.429C409.3 483.729 408.945 483.988 408.561 484.198C407.892 484.578 407.147 484.806 406.379 484.866C405.321 484.943 404.264 484.706 403.34 484.186C403.023 483.995 402.736 483.76 402.486 483.487Z" fill="#FAFAFA"/>
<path d="M408.272 484.567C408.248 484.41 408.242 484.251 408.254 484.093C408.249 483.733 408.257 483.288 408.268 482.743C408.31 481.501 408.367 479.827 408.472 477.808C408.522 476.702 408.562 475.594 408.606 474.386C408.627 473.766 408.65 473.134 408.68 472.482C408.688 472.16 408.709 471.83 408.72 471.497C408.722 471.268 408.676 471.041 408.583 470.831C408.49 470.622 408.353 470.435 408.182 470.283C408.01 470.131 407.808 470.017 407.589 469.95C407.37 469.883 407.139 469.864 406.912 469.894L404.75 470.321L400.176 471.233L398.132 471.636L397.872 471.689L397.853 471.427L397.413 467.181L397.331 466.152C397.328 465.842 397.271 465.534 397.16 465.245C397.039 464.982 396.855 464.753 396.625 464.578C396.395 464.403 396.125 464.288 395.84 464.242C395.547 464.212 395.252 464.22 394.961 464.264L394.056 464.346L392.336 464.5L389.238 464.789L384.781 465.139L383.587 465.21C383.446 465.227 383.303 465.226 383.162 465.208C383.162 465.208 383.3 465.156 383.578 465.118L384.739 464.96L389.17 464.457L392.247 464.163L393.972 463.988L394.881 463.895C395.206 463.842 395.536 463.829 395.865 463.857C396.223 463.91 396.563 464.052 396.853 464.27C397.142 464.488 397.372 464.776 397.521 465.106C397.653 465.442 397.724 465.798 397.732 466.159L397.827 467.18C397.961 468.558 398.092 469.992 398.224 471.459L397.948 471.24L399.991 470.836L404.562 469.935L406.745 469.513C407.14 469.452 407.545 469.508 407.908 469.675C408.271 469.842 408.577 470.112 408.787 470.452C408.997 470.775 409.102 471.155 409.089 471.54C409.078 471.873 409.064 472.216 409.043 472.546C409.014 473.198 408.979 473.826 408.948 474.445C408.878 475.668 408.806 476.812 408.749 477.86C408.628 479.897 408.516 481.567 408.44 482.811L408.329 484.146C408.331 484.289 408.312 484.431 408.272 484.567Z" fill="#FAFAFA"/>
<path d="M402.887 463.748C402.887 463.748 403.12 463.877 403.531 464.055C404.114 464.315 404.766 464.376 405.387 464.228C405.829 464.122 406.238 463.911 406.581 463.614C406.924 463.316 407.189 462.94 407.356 462.517C407.504 462.146 407.569 461.747 407.547 461.348C407.525 460.949 407.416 460.559 407.228 460.207C407.039 459.854 406.776 459.547 406.457 459.306C406.137 459.066 405.769 458.898 405.378 458.815C404.987 458.732 404.583 458.735 404.193 458.824C403.803 458.914 403.438 459.087 403.122 459.332C402.807 459.577 402.548 459.889 402.365 460.244C402.183 460.6 402.08 460.991 402.064 461.39C402.009 462.023 402.162 462.657 402.497 463.196C402.74 463.585 402.939 463.762 402.907 463.798C402.875 463.834 402.646 463.728 402.346 463.301C401.92 462.751 401.706 462.066 401.744 461.372C401.763 460.846 401.917 460.334 402.19 459.884C402.463 459.434 402.847 459.062 403.305 458.803C403.874 458.46 404.536 458.305 405.198 458.36C405.859 458.415 406.487 458.678 406.991 459.11C407.495 459.543 407.849 460.123 408.004 460.769C408.159 461.415 408.106 462.093 407.853 462.707C407.661 463.196 407.348 463.629 406.943 463.965C406.538 464.3 406.054 464.528 405.538 464.626C404.852 464.756 404.142 464.637 403.535 464.291C403.272 464.175 403.047 463.987 402.887 463.748Z" fill="#FAFAFA"/>
<path d="M367.44 463.427L410.353 500.456L400.152 512.278C398.961 513.659 397.271 514.509 395.453 514.643C393.635 514.777 391.838 514.183 390.458 512.992L357.952 484.943C356.572 483.752 355.721 482.062 355.587 480.244C355.453 478.426 356.047 476.63 357.238 475.25L367.44 463.427Z" fill="#E0E0E0"/>
<path d="M427.254 446.838L415.701 460.267C414.789 461.327 414.334 462.705 414.436 464.1C414.539 465.495 415.19 466.792 416.247 467.708L429.107 478.795L427.254 446.838Z" fill="#EBEBEB"/>
<path d="M414.88 461.535C414.015 462.554 413.524 463.839 413.487 465.175C413.45 466.512 413.87 467.821 414.678 468.887L415.024 469.349C416.446 471.095 425.795 482.595 426.014 482.363L429.126 478.721L416.302 467.666C416.302 467.666 413.14 464.772 414.88 461.535Z" fill="#E0E0E0"/>
<path d="M378.266 486.531L379.685 487.75L377.343 490.479C376.07 490.355 374.867 489.837 373.902 488.997C373.401 488.619 372.984 488.142 372.676 487.596C372.368 487.05 372.175 486.446 372.11 485.822C372.045 485.198 372.11 484.567 372.299 483.969C372.489 483.371 372.799 482.819 373.211 482.346C373.623 481.873 374.129 481.49 374.695 481.221C375.262 480.952 375.878 480.802 376.504 480.781C377.131 480.76 377.756 480.868 378.339 481.099C378.922 481.33 379.452 481.678 379.895 482.123C380.437 482.548 380.878 483.087 381.189 483.702C381.5 484.317 381.672 484.993 381.693 485.681L379.91 485.74C379.904 485.31 379.805 484.886 379.619 484.499C379.434 484.111 379.165 483.768 378.834 483.494C378.555 483.243 378.23 483.051 377.876 482.927C377.523 482.803 377.148 482.751 376.775 482.774C376.401 482.797 376.035 482.894 375.699 483.059C375.363 483.225 375.064 483.456 374.818 483.738C374.572 484.021 374.385 484.349 374.267 484.705C374.15 485.061 374.104 485.436 374.134 485.809C374.163 486.183 374.266 486.547 374.437 486.88C374.609 487.213 374.845 487.508 375.131 487.749C375.538 488.122 376.035 488.382 376.574 488.505L378.266 486.531Z" fill="#FAFAFA"/>
<path d="M383.892 485.744L385.437 487.075L379.675 493.755L378.133 492.413L383.892 485.744Z" fill="#FAFAFA"/>
<path d="M387.491 491.016L385.978 492.781L389.068 495.444L387.999 496.679L384.909 494.016L382.802 496.45L381.257 495.119L387.018 488.439L392.062 492.789L391 494.037L387.491 491.016Z" fill="#FAFAFA"/>
<path d="M204.118 113.035L111.219 109.693L108.547 183.963L201.446 187.304L204.118 113.035Z" fill="#FAFAFA"/>
<path d="M204.118 113.036L203.659 113.036L202.359 113.001L197.31 112.845L178.29 112.224L111.211 109.913L111.464 109.679C110.661 131.839 109.769 157.131 108.82 183.929L108.56 183.647L201.462 187.037L201.225 187.253L203.282 133.397C203.543 126.911 203.744 121.819 203.881 118.342C203.955 116.606 204.009 115.278 204.051 114.371C204.092 113.465 204.129 112.994 204.129 112.994C204.129 112.994 204.121 113.439 204.096 114.328C204.07 115.216 204.037 116.549 203.983 118.258C203.869 121.729 203.708 126.799 203.51 133.257L201.657 187.313L201.601 187.521L201.392 187.466L108.506 184.225L108.228 184.218L108.246 183.943C109.221 157.13 110.148 131.791 110.942 109.707L110.951 109.463L111.195 109.472L178.424 112.014L197.388 112.765L202.386 112.985L203.656 113.046L204.118 113.036Z" fill="#E0E0E0"/>
<path d="M200.626 117.591L114.25 114.484L111.915 179.401L198.291 182.508L200.626 117.591Z" fill="#EBEBEB"/>
<path d="M111.914 179.398L143.535 140.133L161.315 166.053L174.476 153.01L198.288 182.516L111.914 179.398Z" fill="#E0E0E0"/>
<path d="M170.335 136.149C170.287 137.495 169.84 138.796 169.052 139.888C168.264 140.98 167.17 141.813 165.908 142.284C164.646 142.754 163.274 142.839 161.963 142.529C160.653 142.219 159.464 141.527 158.547 140.541C157.629 139.555 157.025 138.32 156.81 136.99C156.595 135.661 156.78 134.298 157.339 133.073C157.899 131.848 158.81 130.817 159.956 130.11C161.101 129.403 162.431 129.051 163.777 129.1C165.581 129.165 167.286 129.944 168.516 131.266C169.746 132.588 170.4 134.345 170.335 136.149Z" fill="#E0E0E0"/>
<path d="M313.406 76.2479L176.334 45.5586L151.798 155.148L288.869 185.838L313.406 76.2479Z" fill="#FAFAFA"/>
<path d="M313.406 76.2321C313.406 76.2321 313.176 76.1706 312.748 76.0559L310.823 75.6408L303.369 74.0238L275.28 67.8289L176.251 45.926L176.683 45.6502C169.398 78.2685 161.033 115.666 152.196 155.241L151.89 154.757L288.948 185.507L288.545 185.757C296.004 152.782 302.179 125.438 306.477 106.306C308.656 96.7536 310.363 89.2563 311.516 84.1614C312.109 81.6129 312.556 79.6518 312.873 78.3045C313.189 76.9572 313.36 76.2759 313.36 76.2759C313.36 76.2759 313.239 76.9371 312.955 78.2482C312.671 79.5594 312.244 81.5261 311.701 84.0544C310.571 89.1891 308.925 96.669 306.871 106.255C302.624 125.445 296.537 152.88 289.199 185.988L289.112 186.312L288.778 186.222L151.714 155.537L151.318 155.431L151.421 155.045C160.289 115.478 168.685 78.0888 175.992 45.476L176.087 45.1211L176.442 45.2162L275.609 67.6037L303.561 73.9746L310.938 75.6716L312.806 76.1722L313.406 76.2321Z" fill="#E0E0E0"/>
<path d="M306.958 82.0464L179.515 53.5127L158.069 149.298L285.512 177.832L306.958 82.0464Z" fill="#EBEBEB"/>
<path d="M158.074 149.298L215.91 99.7157L235.151 143.145L258.306 127.421L285.512 177.829L158.074 149.298Z" fill="#E0E0E0"/>
<path d="M256.822 101.224C256.376 103.206 255.351 105.012 253.879 106.412C252.407 107.812 250.552 108.745 248.55 109.091C246.548 109.438 244.488 109.183 242.631 108.36C240.773 107.536 239.202 106.18 238.114 104.464C237.027 102.747 236.473 100.747 236.522 98.7156C236.572 96.6843 237.222 94.7132 238.391 93.0513C239.56 91.3895 241.196 90.1115 243.091 89.3789C244.986 88.6463 247.056 88.4919 249.039 88.9353C250.358 89.2301 251.605 89.782 252.71 90.5594C253.815 91.3368 254.756 92.3245 255.479 93.4659C256.202 94.6073 256.692 95.88 256.923 97.2112C257.154 98.5425 257.119 99.9061 256.822 101.224Z" fill="#E0E0E0"/>
<path d="M233.013 247.493L227.831 181.696C227.028 178.974 227.655 174.589 229.694 172.741C230.691 171.809 231.979 171.249 233.34 171.156L270.41 168.928C271.539 168.843 272.669 169.088 273.661 169.634C274.653 170.18 275.464 171.003 275.997 172.002L280.787 180.681L329.307 177.806C335.722 176.873 340.055 181.704 339.865 186.419L342.7 242.436C342.431 249.076 336.936 254.429 331.307 254.766L245.591 259.925C239.711 260.24 234.43 255.357 233.013 247.493Z" fill="#17C27B"/>
<g opacity="0.3">
<path d="M233.013 247.492L227.831 181.695C227.028 178.973 227.655 174.588 229.694 172.74C230.691 171.808 231.979 171.248 233.34 171.155L270.41 168.927C271.539 168.842 272.669 169.087 273.661 169.633C274.653 170.179 275.464 171.002 275.997 172.001L280.787 180.68L329.307 177.805C335.722 176.872 340.055 181.703 339.865 186.418L342.7 242.435C342.431 249.076 336.936 254.428 331.308 254.766L245.591 259.924C239.711 260.239 234.43 255.356 233.013 247.492Z" fill="black"/>
</g>
<path d="M231.983 246.579L228.225 191.333C228.456 186.92 231.156 183.526 234.557 183.318L331.769 177.47C335.883 177.23 339.341 181.736 339.186 187.031L342.985 238.115C343.751 250.873 337.195 255.091 331.383 255.446L246.196 260.59C237.445 261.098 232.212 257.582 231.983 246.579Z" fill="#17C27B"/>
<path d="M304.553 234.697C304.553 234.697 305.013 234.652 305.845 234.428C307.055 234.065 308.134 233.359 308.951 232.396C309.864 231.297 310.389 229.927 310.443 228.499C310.439 227.972 310.409 227.372 310.359 226.81L309.832 218.837L309.533 214.192C309.478 213.394 309.432 212.565 309.378 211.723C309.361 210.886 309.251 210.053 309.047 209.24C308.676 207.956 307.952 206.801 306.958 205.907C305.963 205.014 304.737 204.417 303.42 204.186C302.479 204.061 301.527 204.054 300.584 204.164L275.167 205.745C274.105 205.916 273.099 206.335 272.228 206.966C271.357 207.597 270.647 208.424 270.154 209.38C269.669 210.314 269.414 211.351 269.411 212.403C269.423 213.447 269.519 214.547 269.572 215.601C269.831 219.87 270.072 223.966 270.296 227.89C270.375 228.85 270.373 229.857 270.502 230.753C270.727 232.061 271.351 233.268 272.29 234.207C273.229 235.145 274.435 235.77 275.744 235.995C276.575 236.104 277.417 236.116 278.252 236.029L280.729 235.887L285.373 235.632L299.383 234.911L303.2 234.737L304.194 234.701L304.527 234.712L304.188 234.767L303.203 234.85L299.4 235.14L285.389 236.073L280.744 236.372L278.275 236.527C277.406 236.625 276.529 236.62 275.661 236.51C274.246 236.275 272.939 235.606 271.921 234.596C270.903 233.585 270.224 232.283 269.979 230.87C269.823 229.866 269.825 228.938 269.745 227.943L269.013 215.686C268.969 214.556 268.852 213.574 268.842 212.441C268.845 211.301 269.123 210.178 269.652 209.167C270.181 208.127 270.95 207.227 271.894 206.541C272.838 205.854 273.931 205.402 275.084 205.219C284.199 204.607 292.726 204.14 300.572 203.669C301.554 203.562 302.546 203.576 303.525 203.711C304.931 203.958 306.238 204.597 307.296 205.556C308.354 206.514 309.119 207.752 309.503 209.127C309.715 209.977 309.827 210.848 309.836 211.723C309.89 212.565 309.94 213.384 309.981 214.189C310.074 215.803 310.161 217.359 310.236 218.833C310.406 221.788 310.539 224.509 310.689 226.786C310.721 227.377 310.764 227.925 310.744 228.502C310.718 229.038 310.628 229.57 310.476 230.086C310.165 231.157 309.583 232.129 308.786 232.909C307.989 233.689 307.004 234.251 305.927 234.539C305.479 234.656 305.016 234.709 304.553 234.697Z" fill="#FAFAFA"/>
<path d="M310.555 230.711C310.396 230.598 310.251 230.465 310.124 230.316L309.029 229.184L304.931 224.729L302.124 221.549L300.565 219.811L299.754 218.912C299.489 218.64 299.151 218.452 298.78 218.371C298.409 218.284 298.02 218.307 297.661 218.438C297.302 218.568 296.989 218.8 296.76 219.105L295.234 221.336L291.998 226.063C291.49 226.789 291.009 227.499 290.539 228.167L290.354 228.442L290.108 228.231L286.129 224.793L285.225 223.991C284.955 223.715 284.635 223.492 284.282 223.336C283.952 223.209 283.596 223.165 283.245 223.207C282.895 223.25 282.56 223.378 282.27 223.58C281.984 223.801 281.73 224.06 281.515 224.351L280.798 225.188L279.406 226.795L276.925 229.666L273.319 233.768L272.321 234.865C272.206 234.995 272.08 235.115 271.945 235.223C272.02 235.063 272.119 234.916 272.241 234.788C272.482 234.472 272.784 234.095 273.154 233.634C274.021 232.569 275.196 231.149 276.622 229.417C277.372 228.499 278.177 227.54 279.049 226.498C279.493 225.968 279.94 225.428 280.413 224.872C280.646 224.588 280.889 224.306 281.125 224.011C281.369 223.681 281.652 223.382 281.968 223.119C282.327 222.858 282.745 222.692 283.184 222.636C283.623 222.579 284.07 222.635 284.482 222.797C284.89 222.969 285.26 223.221 285.571 223.536L286.478 224.327L290.483 227.75L290.045 227.8C290.515 227.132 290.996 226.421 291.493 225.693L294.749 220.972L296.3 218.736C296.593 218.342 296.996 218.044 297.458 217.879C297.92 217.714 298.421 217.69 298.897 217.809C299.357 217.922 299.774 218.166 300.097 218.511L300.967 219.438L302.497 221.202L305.244 224.354L309.2 228.961L310.246 230.237C310.368 230.382 310.472 230.541 310.555 230.711Z" fill="#FAFAFA"/>
<path d="M288.034 217.058C288.034 217.058 288.344 216.984 288.867 216.789C289.598 216.514 290.22 216.009 290.639 215.351C290.941 214.875 291.121 214.332 291.165 213.77C291.208 213.208 291.113 212.644 290.888 212.128C290.606 211.506 290.143 210.983 289.56 210.627C288.977 210.271 288.3 210.099 287.618 210.133C286.937 210.175 286.285 210.423 285.748 210.845C285.211 211.267 284.816 211.842 284.614 212.494C284.448 213.033 284.419 213.604 284.529 214.157C284.638 214.709 284.883 215.226 285.242 215.661C285.732 216.261 286.402 216.688 287.154 216.878C287.447 216.918 287.739 216.974 288.026 217.045C288.026 217.045 287.712 217.173 287.116 217.103C286.265 216.987 285.484 216.572 284.912 215.931C284.485 215.452 284.184 214.873 284.039 214.247C283.894 213.622 283.908 212.97 284.081 212.352C284.3 211.58 284.754 210.895 285.378 210.393C286.003 209.89 286.769 209.594 287.57 209.545C288.37 209.497 289.166 209.699 289.847 210.122C290.528 210.546 291.061 211.171 291.371 211.911C291.62 212.505 291.715 213.153 291.647 213.794C291.579 214.434 291.35 215.048 290.982 215.577C290.489 216.278 289.764 216.782 288.934 216.997C288.358 217.145 288.036 217.092 288.034 217.058Z" fill="#FAFAFA"/>
<path d="M95.5246 443.236L100.671 267.746C100.884 260.396 105.08 253.544 111.627 250.7C114.862 249.247 118.496 248.939 121.93 249.825L230.984 275.398C233.843 276.102 236.434 277.625 238.44 279.781C240.446 281.936 241.78 284.629 242.277 287.531L247.059 312.777L384.256 349.684C394.34 352.386 401.177 369.21 396.83 380.631L371.748 521.21C365.605 537.331 347.628 545.883 333.4 542.071L116.573 483.972C101.698 480.031 92.5959 463.686 95.5246 443.236Z" fill="#17C27B"/>
<g opacity="0.3">
<path d="M95.5247 443.236L100.671 267.746C100.884 260.396 105.08 253.544 111.627 250.7C114.862 249.247 118.496 248.939 121.93 249.825L230.984 275.398C233.843 276.102 236.434 277.625 238.44 279.781C240.446 281.936 241.78 284.629 242.277 287.531L247.059 312.777L384.257 349.684C394.34 352.386 401.177 369.21 396.83 380.631L371.748 521.21C365.605 537.331 347.628 545.883 333.4 542.071L116.573 483.972C101.698 480.031 92.596 463.686 95.5247 443.236Z" fill="black"/>
</g>
<path d="M96.1064 448.539L134.758 262.951L391.747 327.66L351.628 513.291L96.1064 448.539Z" fill="#E0E0E0"/>
<path d="M141.915 272.902C141.8 273.227 141.593 273.511 141.319 273.719C141.045 273.928 140.716 274.052 140.373 274.077C140.03 274.102 139.686 274.026 139.385 273.859C139.084 273.692 138.838 273.441 138.678 273.136C138.517 272.832 138.448 272.487 138.481 272.144C138.513 271.801 138.644 271.475 138.858 271.206C139.072 270.937 139.361 270.735 139.687 270.627C140.014 270.519 140.366 270.508 140.698 270.596C140.93 270.667 141.146 270.783 141.333 270.937C141.519 271.092 141.674 271.281 141.787 271.496C141.9 271.71 141.97 271.945 141.992 272.186C142.014 272.428 141.988 272.671 141.915 272.902Z" fill="#EBEBEB"/>
<path d="M148.554 274.681C148.439 275.005 148.232 275.289 147.958 275.498C147.684 275.706 147.355 275.83 147.012 275.855C146.668 275.88 146.325 275.804 146.024 275.637C145.723 275.47 145.477 275.219 145.316 274.915C145.156 274.61 145.087 274.265 145.119 273.923C145.151 273.58 145.283 273.254 145.497 272.984C145.711 272.715 145.999 272.514 146.326 272.405C146.653 272.297 147.004 272.286 147.337 272.374C147.569 272.445 147.785 272.561 147.971 272.715C148.158 272.87 148.313 273.06 148.426 273.274C148.539 273.488 148.608 273.723 148.631 273.965C148.653 274.206 148.627 274.449 148.554 274.681Z" fill="#EBEBEB"/>
<path d="M155.203 276.462C155.088 276.786 154.881 277.07 154.607 277.279C154.333 277.487 154.004 277.612 153.661 277.637C153.318 277.661 152.974 277.586 152.673 277.419C152.372 277.252 152.126 277 151.966 276.696C151.805 276.391 151.737 276.047 151.769 275.704C151.801 275.361 151.932 275.035 152.146 274.766C152.361 274.496 152.649 274.295 152.976 274.187C153.302 274.078 153.654 274.067 153.987 274.156C154.453 274.301 154.843 274.625 155.071 275.057C155.299 275.49 155.347 275.995 155.203 276.462Z" fill="#EBEBEB"/>
<path d="M233.659 297.485L224.512 393.375L98.1506 379.073L107.298 283.183L233.659 297.485Z" fill="#EBEBEB"/>
<path d="M233.669 297.487L233.057 297.434L231.282 297.25L224.406 296.526L198.531 293.676L107.279 283.501L107.632 283.227C104.929 311.77 101.812 344.487 98.5299 379.118L98.1983 378.727L224.556 393.084L224.219 393.341C227.043 364.472 229.411 340.56 231.011 323.815C231.844 315.446 232.494 308.886 232.94 304.384C233.169 302.152 233.347 300.443 233.461 299.266C233.575 298.088 233.669 297.487 233.669 297.487C233.669 297.487 233.638 298.06 233.543 299.209C233.448 300.359 233.29 302.073 233.091 304.279C232.682 308.768 232.079 315.319 231.32 323.663C229.764 340.453 227.528 364.456 224.826 393.414L224.805 393.699L224.513 393.621L98.1132 379.42L97.7548 379.38L97.7817 379.029C101.096 344.407 104.233 311.695 106.97 283.15L107.049 282.858L107.362 282.942L198.802 293.458L224.593 296.453L231.39 297.267L233.124 297.475L233.669 297.487Z" fill="#164772"/>
<path d="M103.083 373.525L220.572 386.826L228.564 303.011L111.075 289.711L103.083 373.525Z" fill="#164772"/>
<g opacity="0.3">
<path d="M103.083 373.525L149.092 326.077L171.395 361.544L190.299 346.068L220.572 386.826L103.083 373.525Z" fill="black"/>
</g>
<g opacity="0.3">
<path d="M185.908 323.791C185.766 324.967 185.39 326.102 184.803 327.131C184.215 328.16 183.428 329.06 182.488 329.781C181.548 330.501 180.473 331.027 179.327 331.326C178.181 331.625 176.987 331.693 175.814 331.524C173.41 331.302 171.187 330.151 169.616 328.316C168.046 326.482 167.253 324.107 167.405 321.697C167.546 320.521 167.92 319.386 168.506 318.357C169.093 317.328 169.878 316.426 170.818 315.706C171.757 314.985 172.831 314.459 173.977 314.159C175.123 313.86 176.317 313.792 177.489 313.961C179.897 314.178 182.125 315.327 183.697 317.164C185.27 319 186.064 321.378 185.908 323.791Z" fill="black"/>
</g>
<path d="M101.162 459.19L145.37 280.383L407.293 349.972L359.117 525.468L101.162 459.19Z" fill="#EBEBEB"/>
<path d="M158.682 291.412C158.567 291.736 158.36 292.02 158.086 292.229C157.812 292.438 157.483 292.562 157.14 292.587C156.796 292.612 156.453 292.536 156.152 292.369C155.851 292.202 155.605 291.951 155.444 291.646C155.284 291.342 155.215 290.997 155.247 290.654C155.279 290.311 155.411 289.985 155.625 289.716C155.839 289.446 156.127 289.245 156.454 289.137C156.781 289.028 157.132 289.018 157.465 289.106C157.932 289.251 158.322 289.575 158.55 290.008C158.778 290.44 158.825 290.945 158.682 291.412Z" fill="#E0E0E0"/>
<path d="M164.809 293.055C164.694 293.38 164.486 293.664 164.212 293.872C163.938 294.081 163.608 294.205 163.264 294.23C162.92 294.254 162.577 294.177 162.276 294.009C161.975 293.841 161.729 293.589 161.569 293.284C161.409 292.978 161.342 292.633 161.375 292.29C161.409 291.947 161.541 291.621 161.757 291.352C161.973 291.083 162.263 290.883 162.591 290.776C162.918 290.67 163.27 290.661 163.603 290.751C163.834 290.823 164.048 290.94 164.233 291.094C164.419 291.249 164.572 291.439 164.684 291.653C164.796 291.867 164.865 292.101 164.886 292.341C164.908 292.582 164.882 292.824 164.809 293.055Z" fill="#E0E0E0"/>
<path d="M152.168 289.668C152.053 289.992 151.846 290.276 151.572 290.485C151.298 290.693 150.97 290.818 150.626 290.843C150.283 290.867 149.94 290.792 149.638 290.625C149.337 290.458 149.092 290.206 148.931 289.902C148.77 289.597 148.702 289.253 148.734 288.91C148.766 288.567 148.897 288.241 149.111 287.972C149.326 287.702 149.614 287.501 149.941 287.393C150.268 287.284 150.619 287.273 150.952 287.362C151.418 287.507 151.808 287.831 152.036 288.263C152.264 288.696 152.312 289.201 152.168 289.668Z" fill="#E0E0E0"/>
<path d="M106.084 465.164L151.403 296.03L412.252 365.331L351.813 534.9L106.084 465.164Z" fill="#FAFAFA"/>
<path d="M98.4506 443.047L148.099 320.138C151.972 310.525 161.024 305.052 169.365 307.287L407.496 371.094C417.57 373.793 422.543 386.504 418.123 398.241L371.952 520.449C361.306 545.566 350.268 546.636 336.04 542.824L113.514 483.198C98.6287 479.209 85.2041 471.607 98.4506 443.047Z" fill="#17C27B"/>
<g opacity="0.7">
<path d="M277.888 408.328L281.013 424.056C281.142 424.684 281.421 425.271 281.825 425.769C282.229 426.267 282.747 426.66 283.335 426.916L298.068 433.224C298.745 433.517 299.326 433.993 299.746 434.6C300.166 435.206 300.407 435.918 300.443 436.654C300.478 437.391 300.307 438.122 299.947 438.766C299.588 439.41 299.056 439.941 298.41 440.297L284.43 448.131C283.872 448.446 283.399 448.891 283.05 449.429C282.701 449.967 282.488 450.581 282.428 451.219L280.959 467.182C280.891 467.917 280.619 468.619 280.174 469.207C279.729 469.796 279.127 470.248 278.438 470.513C277.749 470.777 277 470.844 276.275 470.705C275.55 470.566 274.878 470.227 274.336 469.726L262.56 458.851C262.09 458.416 261.522 458.103 260.903 457.937C260.285 457.771 259.636 457.759 259.011 457.9L243.433 461.468C242.713 461.632 241.962 461.591 241.264 461.349C240.567 461.108 239.951 460.675 239.487 460.101C239.023 459.527 238.73 458.834 238.64 458.101C238.55 457.369 238.668 456.625 238.98 455.956L245.679 441.394C245.948 440.813 246.072 440.174 246.039 439.533C246.006 438.893 245.817 438.27 245.489 437.719L237.298 423.945C236.922 423.312 236.73 422.588 236.742 421.852C236.755 421.117 236.973 420.399 237.371 419.781C237.77 419.162 238.332 418.667 238.997 418.351C239.661 418.034 240.4 417.91 241.131 417.99L257.051 419.873C257.686 419.947 258.331 419.866 258.928 419.636C259.525 419.407 260.058 419.035 260.481 418.554L271.061 406.498C271.549 405.951 272.179 405.55 272.881 405.34C273.584 405.13 274.331 405.119 275.039 405.309C275.747 405.498 276.388 405.881 276.891 406.414C277.394 406.947 277.74 407.61 277.888 408.328Z" fill="white"/>
</g>
<path d="M62.6658 403.487C63.9471 404.455 65.0188 405.674 65.8163 407.068C66.6137 408.462 67.1203 410.004 67.3054 411.599C67.6677 414.803 67.2848 418.047 66.1865 421.078C64.2603 426.972 59.5717 432.362 54.8716 436.416C50.746 430.937 51.1426 422.943 51.6089 418.906C52.3663 412.53 57.5746 401.485 62.6658 403.487Z" fill="#17C27B"/>
<path d="M58.7307 447.609C58.7385 445.811 59.2223 444.047 60.1329 442.497C61.0435 440.947 62.3484 439.666 63.9148 438.783C65.4849 437.932 67.2082 437.401 68.985 437.22C70.7617 437.04 72.5567 437.213 74.266 437.731C75.0821 437.889 75.8538 438.224 76.527 438.711C77.2003 439.199 77.7588 439.828 78.1636 440.554C78.4276 441.284 78.4903 442.071 78.3451 442.833C78.1999 443.596 77.8522 444.305 77.3384 444.886C76.2962 446.043 74.9656 446.903 73.4824 447.377C68.5099 449.233 63.352 450.111 58.6785 447.595" fill="#17C27B"/>
<path d="M48.3812 464.772C48.4883 464.359 48.6337 463.956 48.8156 463.569C49.1521 462.73 49.6003 461.642 50.1282 460.34C51.4613 456.722 53.3786 453.347 55.8037 450.349C58.2867 447.359 61.5219 445.087 65.1758 443.764C66.2844 443.39 67.4317 443.141 68.596 443.025C69.011 442.979 69.3305 442.998 69.5456 442.988C69.7607 442.979 69.8811 442.989 69.8755 443.01C68.3188 443.189 66.7847 443.527 65.2973 444.02C61.7423 445.406 58.5957 447.669 56.1508 450.598C53.7671 453.571 51.8393 456.881 50.4309 460.421C49.8236 461.769 49.3441 462.849 48.9882 463.592C48.8174 464.001 48.6144 464.396 48.3812 464.772Z" fill="#164772"/>
<path d="M59.4301 412.264C59.4401 412.451 59.4237 412.639 59.3814 412.821C59.2751 413.218 59.2453 413.747 59.1505 414.393C58.9519 415.76 58.6223 417.742 58.1962 420.167C57.3592 425.045 56.0981 431.755 54.5349 439.134C52.9716 446.513 51.4127 453.166 50.218 457.959C49.5775 460.35 49.1122 462.295 48.7542 463.631C48.5864 464.257 48.4493 464.768 48.3431 465.165C48.3163 465.348 48.2684 465.526 48.2004 465.698C48.232 465.516 48.2797 465.338 48.3431 465.165C48.4493 464.768 48.5655 464.251 48.6916 463.614C49.0636 462.226 49.4634 460.274 50.0064 457.914C51.128 453.101 52.6424 446.448 54.2057 439.068C55.7689 431.689 57.069 425 57.9895 420.145C58.449 417.763 58.8175 415.803 59.0823 414.397C59.2529 413.76 59.3141 413.239 59.3995 412.837C59.3922 412.646 59.4025 412.454 59.4301 412.264Z" fill="#164772"/>
<path d="M49.1708 449.466C49.3108 445.675 48.5444 441.905 46.9354 438.47C45.3264 435.034 42.9212 432.032 39.9193 429.713C38.3976 428.544 36.2805 427.552 34.6414 428.533C33.0022 429.515 32.824 431.85 33.1489 433.727C33.8878 437.685 35.7833 441.335 38.596 444.215C41.4087 447.095 45.0121 449.077 48.951 449.91" fill="#17C27B"/>
<path d="M39.6032 435.569C39.9327 435.773 40.2453 436.003 40.538 436.256C40.9186 436.531 41.2789 436.833 41.6159 437.16C42.092 437.564 42.5443 437.996 42.9704 438.452C43.5137 439.02 44.026 439.616 44.5053 440.239C45.059 440.907 45.5783 441.603 46.0614 442.323C47.1358 444.004 48.0208 445.798 48.7002 447.673C49.3357 449.567 49.7564 451.526 49.9546 453.514C50.0287 454.381 50.0569 455.251 50.0392 456.121C50.0438 456.939 49.9524 457.698 49.891 458.386C49.8296 459.074 49.6855 459.696 49.5978 460.232C49.5055 460.695 49.3831 461.152 49.2314 461.599C49.1468 461.992 49.0218 462.374 48.8583 462.741C48.7644 462.716 49.303 461.081 49.543 458.349C49.6105 457.612 49.637 456.872 49.6222 456.132C49.6302 455.274 49.5912 454.416 49.5055 453.561C49.2895 451.613 48.8621 449.694 48.2308 447.838C47.5656 445.993 46.7089 444.222 45.6747 442.555C45.2186 441.829 44.7228 441.129 44.1897 440.457C43.7157 439.804 43.2033 439.253 42.7584 438.742C40.921 436.706 39.5355 435.697 39.6032 435.569Z" fill="#164772"/>
</svg>
