<svg width="46" height="46" viewBox="0 0 46 46" fill="none" xmlns="http://www.w3.org/2000/svg">
<g clip-path="url(#clip0_1756_2111)">
<rect width="46" height="46" rx="23" fill="url(#paint0_linear_1756_2111)"/>
<path d="M18.9051 32.0259C20.233 29.818 23.2818 25.5857 30.5411 19.6387C41.4953 10.6649 31.1567 2.45686 20.0502 6.82844C18.8621 7.29614 15.5697 5.42381 12.5198 7.39632C10.5525 8.66876 11.3181 9.66594 10.5521 10.6631C9.78604 11.6603 6.8327 11.6017 6.18572 14.191C5.80253 15.7251 6.86291 17.3319 6.72108 18.4866C6.57925 19.6412 5.45986 20.682 5.40645 22.2063C5.38333 22.8501 5.48727 23.4922 5.71232 24.0958C5.93738 24.6994 6.27915 25.2528 6.7181 25.7243C7.15706 26.1959 7.68461 26.5763 8.27061 26.8439C8.85662 27.1115 9.48961 27.2611 10.1334 27.284C10.1387 28.5568 10.6356 29.7782 11.5205 30.6931C12.4053 31.608 13.6094 32.1456 14.8813 32.1934C15.6969 32.2232 16.5069 32.0478 17.237 31.6832C17.9614 32.3508 18.5833 32.5608 18.9051 32.0259Z" fill="url(#paint1_linear_1756_2111)"/>
<path d="M21.6207 6.28582C19.7322 7.49715 17.3959 11.47 18.4214 16.8031C18.6451 17.9668 17.9461 18.3151 17.3481 16.8798C15.5438 12.5495 15.3346 8.64424 18.4214 6.77618C18.9581 6.45311 19.2647 6.71485 19.6481 6.68311C20.3772 6.62269 21.3588 6.10611 21.6207 6.28582Z" fill="#17C27B"/>
<path d="M19.1669 29.7447C19.1669 28.3647 19.12 21.5579 19.1223 21.4429C15.3336 22.0013 15.4103 14.7947 19.2436 16.558C20.0869 17.0947 22.4636 16.558 22.2336 12.1113C26.3736 16.558 31.1802 11.3716 31.5923 15.5978C32.1552 21.3685 31.5889 27.4077 28.0026 27.4082C27.6103 27.4034 27.2191 27.3643 26.8336 27.2913V29.7447C26.8336 31.278 29.5936 32.0447 29.5936 32.0447C29.5936 32.0447 24.8262 36.5373 22.8469 36.5125C20.8677 36.4876 16.4069 32.0447 16.4069 32.0447C16.4069 32.0447 19.1669 31.278 19.1669 29.7447Z" fill="url(#paint2_linear_1756_2111)"/>
<g style="mix-blend-mode:multiply">
<path d="M26.8336 27.2917C24.9314 26.8699 23.1288 26.0837 21.5254 24.9766C21.5254 24.9766 22.8484 28.2108 26.8287 28.8245L26.8336 27.2917Z" fill="#FFDBC9"/>
</g>
<path d="M37.1061 36.646C38.2185 39.118 38.7927 46.6126 38.7927 46.6126H7.20605C7.20605 46.6126 7.78029 39.118 8.89272 36.646C9.86731 34.4804 16.2894 31.994 18.1714 31.2793C19.2581 32.4949 20.8153 33.2726 22.9994 33.2726C25.1835 33.2726 26.7407 32.4949 27.8274 31.2793C29.7094 31.994 36.1315 34.4804 37.1061 36.646Z" fill="url(#paint3_linear_1756_2111)"/>
</g>
<defs>
<linearGradient id="paint0_linear_1756_2111" x1="23" y1="46" x2="23" y2="0" gradientUnits="userSpaceOnUse">
<stop stop-color="#164772" stop-opacity="0.17"/>
<stop offset="1" stop-color="#164772" stop-opacity="0.1"/>
</linearGradient>
<linearGradient id="paint1_linear_1756_2111" x1="19.7735" y1="32.3772" x2="20.718" y2="5.41755" gradientUnits="userSpaceOnUse">
<stop stop-color="#164772"/>
<stop offset="1" stop-color="#10314F"/>
</linearGradient>
<linearGradient id="paint2_linear_1756_2111" x1="24.0521" y1="12.1113" x2="24.0521" y2="36.5126" gradientUnits="userSpaceOnUse">
<stop stop-color="#FFE0CC"/>
<stop offset="1" stop-color="#FFEADB"/>
</linearGradient>
<linearGradient id="paint3_linear_1756_2111" x1="22.9994" y1="31.2793" x2="22.9994" y2="46.6126" gradientUnits="userSpaceOnUse">
<stop stop-color="#17C27B"/>
<stop offset="1" stop-color="#74C1A1"/>
</linearGradient>
<clipPath id="clip0_1756_2111">
<rect width="46" height="46" rx="23" fill="white"/>
</clipPath>
</defs>
</svg>
